<?xml version="1.0" encoding="UTF-8"?>
<svg fill="#fff" width="700pt" height="700pt" version="1.1" viewBox="0 0 700 700" xmlns="http://www.w3.org/2000/svg" xmlns:xlink="http://www.w3.org/1999/xlink">
 <defs>
  <symbol id="t" overflow="visible">
   <path d="m3.6094-0.21875c-0.1875 0.09375-0.38281 0.16797-0.57812 0.21875-0.19922 0.050781-0.41406 0.078125-0.64062 0.078125-0.64844 0-1.1641-0.17969-1.5469-0.54688-0.38672-0.36328-0.57812-0.86328-0.57812-1.5 0-0.625 0.19141-1.1172 0.57812-1.4844 0.38281-0.36328 0.89844-0.54688 1.5469-0.54688 0.22656 0 0.44141 0.027344 0.64062 0.078125 0.19531 0.042969 0.39062 0.11719 0.57812 0.21875v0.8125c-0.1875-0.13281-0.375-0.22656-0.5625-0.28125-0.17969-0.0625-0.36719-0.09375-0.5625-0.09375-0.36719 0-0.65234 0.11719-0.85938 0.34375-0.21094 0.23047-0.3125 0.54688-0.3125 0.95312s0.10156 0.73047 0.3125 0.96875c0.20703 0.23047 0.49219 0.34375 0.85938 0.34375 0.19531 0 0.38281-0.03125 0.5625-0.09375 0.1875-0.0625 0.375-0.15625 0.5625-0.28125z"/>
  </symbol>
  <symbol id="c" overflow="visible">
   <path d="m2.6406-2.1406c-0.085937-0.039063-0.16797-0.070313-0.25-0.09375-0.074219-0.019531-0.15234-0.03125-0.23438-0.03125-0.25 0-0.44531 0.078125-0.57812 0.23438-0.125 0.15625-0.1875 0.38281-0.1875 0.67188v1.3594h-0.9375v-2.9531h0.9375v0.48438c0.125-0.1875 0.26562-0.32031 0.42188-0.40625 0.15625-0.09375 0.34375-0.14062 0.5625-0.14062h0.09375c0.039062 0 0.097656 0.007813 0.17188 0.015625z"/>
  </symbol>
  <symbol id="b" overflow="visible">
   <path d="m3.3906-1.4844v0.26562h-2.2031c0.03125 0.23047 0.11328 0.40234 0.25 0.51562 0.13281 0.10547 0.32031 0.15625 0.5625 0.15625 0.19531 0 0.39844-0.023437 0.60938-0.078125 0.20703-0.0625 0.42188-0.15625 0.64062-0.28125v0.73438c-0.21875 0.085938-0.44531 0.14844-0.67188 0.1875-0.21875 0.039062-0.4375 0.0625-0.65625 0.0625-0.53125 0-0.94922-0.13281-1.25-0.40625-0.29297-0.26953-0.4375-0.64844-0.4375-1.1406 0-0.47656 0.14453-0.85156 0.4375-1.125 0.28906-0.28125 0.6875-0.42188 1.1875-0.42188 0.46875 0 0.83594 0.14062 1.1094 0.42188 0.28125 0.27344 0.42188 0.64062 0.42188 1.1094zm-0.96875-0.3125c0-0.17578-0.054687-0.31641-0.15625-0.42188-0.10547-0.11328-0.24219-0.17188-0.40625-0.17188-0.17969 0-0.32422 0.054687-0.4375 0.15625-0.11719 0.10547-0.1875 0.25-0.21875 0.4375z"/>
  </symbol>
  <symbol id="d" overflow="visible">
   <path d="m1.7812-1.3281c-0.19922 0-0.35156 0.039063-0.45312 0.10938-0.09375 0.0625-0.14062 0.15625-0.14062 0.28125s0.035156 0.22656 0.10938 0.29688c0.082031 0.0625 0.19531 0.09375 0.34375 0.09375 0.17578 0 0.32031-0.0625 0.4375-0.1875 0.125-0.13281 0.1875-0.29688 0.1875-0.48438v-0.10938zm1.4375-0.35938v1.6875h-0.95312v-0.4375c-0.125 0.17969-0.27344 0.30859-0.4375 0.39062-0.15625 0.082031-0.34375 0.125-0.5625 0.125-0.3125 0-0.5625-0.085938-0.75-0.26562-0.1875-0.17578-0.28125-0.41016-0.28125-0.70312 0-0.34375 0.11328-0.59375 0.34375-0.75 0.23828-0.16406 0.61328-0.25 1.125-0.25h0.5625v-0.078125c0-0.14453-0.0625-0.25-0.1875-0.3125-0.11719-0.070312-0.29688-0.10938-0.54688-0.10938-0.19922 0-0.38672 0.023437-0.5625 0.0625-0.16797 0.042969-0.32812 0.10156-0.48438 0.17188v-0.71875c0.20703-0.039062 0.41016-0.070312 0.60938-0.09375 0.20703-0.03125 0.41016-0.046875 0.60938-0.046875 0.53125 0 0.91406 0.10547 1.1562 0.3125 0.23828 0.21094 0.35938 0.54688 0.35938 1.0156z"/>
  </symbol>
  <symbol id="a" overflow="visible">
   <path d="m1.4844-3.7812v0.82812h0.96875v0.67188h-0.96875v1.25c0 0.14844 0.023437 0.24609 0.078125 0.29688 0.050781 0.042969 0.16016 0.0625 0.32812 0.0625h0.48438v0.67188h-0.8125c-0.375 0-0.64062-0.078125-0.79688-0.23438-0.14844-0.15625-0.21875-0.42188-0.21875-0.79688v-1.25h-0.46875v-0.67188h0.46875v-0.82812z"/>
  </symbol>
  <symbol id="i" overflow="visible">
   <path d="m2.4531-2.5156v-1.5781h0.95312v4.0938h-0.95312v-0.42188c-0.125 0.16797-0.26562 0.29297-0.42188 0.375-0.15625 0.082031-0.33984 0.125-0.54688 0.125-0.36719 0-0.66797-0.14453-0.90625-0.4375-0.23047-0.28906-0.34375-0.66016-0.34375-1.1094 0-0.45703 0.11328-0.82812 0.34375-1.1094 0.23828-0.28906 0.53906-0.4375 0.90625-0.4375 0.20703 0 0.39062 0.042969 0.54688 0.125 0.15625 0.074219 0.29688 0.19922 0.42188 0.375zm-0.60938 1.9062c0.19531 0 0.34766-0.070313 0.45312-0.21875 0.10156-0.14453 0.15625-0.35938 0.15625-0.64062s-0.054687-0.49219-0.15625-0.64062c-0.10547-0.14453-0.25781-0.21875-0.45312-0.21875-0.21094 0-0.36719 0.074219-0.46875 0.21875-0.10547 0.14844-0.15625 0.35938-0.15625 0.64062s0.050781 0.49609 0.15625 0.64062c0.10156 0.14844 0.25781 0.21875 0.46875 0.21875z"/>
  </symbol>
  <symbol id="h" overflow="visible">
   <path d="m2.0156-0.60938c0.20703 0 0.36328-0.070313 0.46875-0.21875 0.10156-0.14453 0.15625-0.35938 0.15625-0.64062s-0.054687-0.49219-0.15625-0.64062c-0.10547-0.14453-0.26172-0.21875-0.46875-0.21875-0.19922 0-0.35547 0.074219-0.46875 0.21875-0.10547 0.14844-0.15625 0.35938-0.15625 0.64062s0.050781 0.49609 0.15625 0.64062c0.11328 0.14844 0.26953 0.21875 0.46875 0.21875zm-0.625-1.9062c0.13281-0.17578 0.28125-0.30078 0.4375-0.375 0.15625-0.082031 0.33594-0.125 0.54688-0.125 0.36328 0 0.66016 0.14844 0.89062 0.4375 0.22656 0.28125 0.34375 0.65234 0.34375 1.1094 0 0.44922-0.11719 0.82031-0.34375 1.1094-0.23047 0.29297-0.52734 0.4375-0.89062 0.4375-0.21094 0-0.39062-0.042969-0.54688-0.125-0.15625-0.082031-0.30469-0.20703-0.4375-0.375v0.42188h-0.9375v-4.0938h0.9375z"/>
  </symbol>
  <symbol id="g" overflow="visible">
   <path d="m0.0625-2.9531h0.95312l0.78125 2 0.67188-2h0.95312l-1.25 3.2344c-0.125 0.32031-0.27344 0.54688-0.4375 0.67188-0.15625 0.13281-0.375 0.20312-0.65625 0.20312h-0.53125v-0.60938h0.28125c0.16406 0 0.28516-0.027344 0.35938-0.078125 0.070312-0.054688 0.12891-0.14844 0.17188-0.28125l0.015625-0.078125z"/>
  </symbol>
  <symbol id="f" overflow="visible">
   <path d="m0.5-3.9375h2.7344v0.78125h-1.7188v0.71875h1.6094v0.76562h-1.6094v1.6719h-1.0156z"/>
  </symbol>
  <symbol id="s" overflow="visible">
   <path d="m0.45312-4.0938h0.9375v4.0938h-0.9375z"/>
  </symbol>
  <symbol id="r" overflow="visible">
   <path d="m2.3906-4.0938v0.60938h-0.51562c-0.13672 0-0.23047 0.027344-0.28125 0.078125-0.054688 0.054688-0.078125 0.13672-0.078125 0.25v0.20312h0.79688v0.67188h-0.79688v2.2812h-0.9375v-2.2812h-0.46875v-0.67188h0.46875v-0.20312c0-0.32031 0.085937-0.55469 0.26562-0.70312 0.17578-0.15625 0.45312-0.23438 0.82812-0.23438z"/>
  </symbol>
  <symbol id="e" overflow="visible">
   <path d="m1.8594-2.3438c-0.21094 0-0.37109 0.078125-0.48438 0.23438-0.10547 0.14844-0.15625 0.35938-0.15625 0.64062s0.050781 0.5 0.15625 0.65625c0.11328 0.14844 0.27344 0.21875 0.48438 0.21875 0.19531 0 0.34766-0.070312 0.45312-0.21875 0.11328-0.15625 0.17188-0.375 0.17188-0.65625s-0.058594-0.49219-0.17188-0.64062c-0.10547-0.15625-0.25781-0.23438-0.45312-0.23438zm0-0.67188c0.5 0 0.89062 0.13672 1.1719 0.40625 0.28906 0.27344 0.4375 0.65234 0.4375 1.1406 0 0.48047-0.14844 0.85938-0.4375 1.1406-0.28125 0.27344-0.67188 0.40625-1.1719 0.40625-0.51172 0-0.91406-0.13281-1.2031-0.40625-0.28125-0.28125-0.42188-0.66016-0.42188-1.1406 0-0.48828 0.14062-0.86719 0.42188-1.1406 0.28906-0.26953 0.69141-0.40625 1.2031-0.40625z"/>
  </symbol>
  <symbol id="q" overflow="visible">
   <path d="m3.1875-2.4531c0.11328-0.1875 0.25391-0.32812 0.42188-0.42188 0.16406-0.09375 0.34766-0.14062 0.54688-0.14062 0.33203 0 0.58594 0.10547 0.76562 0.3125 0.17578 0.21094 0.26562 0.51172 0.26562 0.90625v1.7969h-0.9375v-1.5312-0.078125-0.10938c0-0.20703-0.03125-0.35938-0.09375-0.45312s-0.16406-0.14062-0.29688-0.14062c-0.17969 0-0.32031 0.078125-0.42188 0.23438-0.09375 0.14844-0.14062 0.35547-0.14062 0.625v1.4531h-0.95312v-1.5312c0-0.33203-0.03125-0.54688-0.09375-0.64062-0.054688-0.09375-0.14844-0.14062-0.28125-0.14062-0.1875 0-0.33594 0.078125-0.4375 0.23438-0.09375 0.14844-0.14062 0.35547-0.14062 0.625v1.4531h-0.9375v-2.9531h0.9375v0.4375c0.11328-0.16406 0.24219-0.28906 0.39062-0.375 0.15625-0.082031 0.32812-0.125 0.51562-0.125 0.19531 0 0.375 0.054687 0.53125 0.15625 0.15625 0.09375 0.27344 0.23047 0.35938 0.40625z"/>
  </symbol>
  <symbol id="p" overflow="visible">
   <path d="m3.4219-1.7969v1.7969h-0.95312v-1.375c0-0.25-0.007812-0.42188-0.015625-0.51562-0.011719-0.10156-0.03125-0.17578-0.0625-0.21875-0.03125-0.0625-0.085937-0.10938-0.15625-0.14062-0.0625-0.039062-0.13281-0.0625-0.20312-0.0625-0.19922 0-0.35547 0.078125-0.46875 0.23438-0.11719 0.14844-0.17188 0.35547-0.17188 0.625v1.4531h-0.9375v-4.0938h0.9375v1.5781c0.14453-0.17578 0.29688-0.30078 0.45312-0.375 0.16406-0.082031 0.34375-0.125 0.53125-0.125 0.34375 0 0.60156 0.10547 0.78125 0.3125 0.17578 0.21094 0.26562 0.51172 0.26562 0.90625z"/>
  </symbol>
  <symbol id="o" overflow="visible">
   <path d="m0.5-3.9375h1.125l1.4375 2.7031v-2.7031h0.95312v3.9375h-1.125l-1.4375-2.7031v2.7031h-0.95312z"/>
  </symbol>
  <symbol id="n" overflow="visible">
   <path d="m0.42188-1.1406v-1.8125h0.95312v0.29688c0 0.16797-0.007812 0.37109-0.015625 0.60938v0.48438c0 0.23047 0.003906 0.39844 0.015625 0.5 0.019531 0.10547 0.039062 0.18359 0.0625 0.23438 0.039062 0.0625 0.09375 0.10938 0.15625 0.14062s0.13281 0.046875 0.21875 0.046875c0.19531 0 0.34766-0.070313 0.45312-0.21875 0.11328-0.15625 0.17188-0.36719 0.17188-0.64062v-1.4531h0.95312v2.9531h-0.95312v-0.42188c-0.13672 0.16797-0.28906 0.29297-0.45312 0.375-0.15625 0.082031-0.32812 0.125-0.51562 0.125-0.34375 0-0.60547-0.10156-0.78125-0.3125-0.17969-0.20703-0.26562-0.50781-0.26562-0.90625z"/>
  </symbol>
  <symbol id="m" overflow="visible">
   <path d="m3.4219-1.7969v1.7969h-0.95312v-1.375c0-0.25-0.007812-0.42188-0.015625-0.51562-0.011719-0.10156-0.03125-0.17578-0.0625-0.21875-0.03125-0.0625-0.085937-0.10938-0.15625-0.14062-0.0625-0.039062-0.13281-0.0625-0.20312-0.0625-0.19922 0-0.35547 0.078125-0.46875 0.23438-0.11719 0.14844-0.17188 0.35547-0.17188 0.625v1.4531h-0.9375v-2.9531h0.9375v0.4375c0.14453-0.17578 0.29688-0.30078 0.45312-0.375 0.16406-0.082031 0.34375-0.125 0.53125-0.125 0.34375 0 0.60156 0.10547 0.78125 0.3125 0.17578 0.21094 0.26562 0.51172 0.26562 0.90625z"/>
  </symbol>
  <symbol id="l" overflow="visible">
   <path d="m0.5-3.9375h1.6719c0.5 0 0.88281 0.11719 1.1562 0.34375 0.26953 0.21875 0.40625 0.53906 0.40625 0.95312 0 0.40625-0.13672 0.72656-0.40625 0.95312-0.27344 0.21875-0.65625 0.32812-1.1562 0.32812h-0.65625v1.3594h-1.0156zm1.0156 0.73438v1.1094h0.54688c0.19531 0 0.34766-0.046875 0.45312-0.14062 0.11328-0.10156 0.17188-0.23828 0.17188-0.40625 0-0.17578-0.058594-0.3125-0.17188-0.40625-0.10547-0.10156-0.25781-0.15625-0.45312-0.15625z"/>
  </symbol>
  <symbol id="k" overflow="visible">
   <path d="m0.45312-2.9531h0.9375v2.9062c0 0.39453-0.09375 0.69141-0.28125 0.89062-0.1875 0.20703-0.46484 0.3125-0.82812 0.3125h-0.45312v-0.60938h0.15625c0.17578 0 0.29688-0.042969 0.35938-0.125 0.070312-0.085937 0.10938-0.24219 0.10938-0.46875zm0-1.1406h0.9375v0.76562h-0.9375z"/>
  </symbol>
  <symbol id="j" overflow="visible">
   <path d="m2.8281-2.8594v0.76562c-0.125-0.082031-0.25781-0.14453-0.39062-0.1875-0.125-0.039062-0.25781-0.0625-0.39062-0.0625-0.26172 0-0.46484 0.078125-0.60938 0.23438-0.14844 0.14844-0.21875 0.35938-0.21875 0.64062 0 0.27344 0.070312 0.48438 0.21875 0.64062 0.14453 0.15625 0.34766 0.23438 0.60938 0.23438 0.14453 0 0.28516-0.019531 0.42188-0.0625 0.13281-0.050781 0.25391-0.11719 0.35938-0.20312v0.76562c-0.14844 0.0625-0.29688 0.10156-0.45312 0.125-0.14844 0.03125-0.29688 0.046875-0.45312 0.046875-0.53125 0-0.94922-0.13281-1.25-0.40625-0.29297-0.28125-0.4375-0.66016-0.4375-1.1406 0-0.48828 0.14453-0.86719 0.4375-1.1406 0.30078-0.26953 0.71875-0.40625 1.25-0.40625 0.15625 0 0.30469 0.015625 0.45312 0.046875 0.15625 0.023438 0.30469 0.058594 0.45312 0.10938z"/>
  </symbol>
 </defs>
 <g>
  <path d="m336.88 161.13c-12.113 0-21.969 9.8555-21.969 21.969 0 12.094 9.8555 21.934 21.969 21.934 12.094 0 21.934-9.8398 21.934-21.934 0-12.113-9.8398-21.969-21.934-21.969zm0 33.133c-6.1758 0-11.199-5.0078-11.199-11.164 0-6.1758 5.0234-11.199 11.199-11.199 6.1562 0 11.164 5.0234 11.164 11.199 0 6.1562-5.0078 11.164-11.164 11.164z"/>
  <path d="m381.87 183.1c0-24.824-20.18-45.02-44.984-45.02-24.824 0-45.02 20.195-45.02 45.02 0 24.805 20.195 44.984 45.02 44.984 24.805 0 44.984-20.18 44.984-44.984zm-44.984 34.215c-18.887 0-34.25-15.348-34.25-34.215 0-18.887 15.363-34.25 34.25-34.25 18.867 0 34.215 15.363 34.215 34.25 0 18.867-15.348 34.215-34.215 34.215z"/>
  <path d="m350.39 270.59 4.793-21.449c5.3906-1.4883 10.551-3.625 15.414-6.3867l18.598 11.777c2.1289 1.3477 4.9062 1.0391 6.6875-0.74219l11.688-11.691c1.7812-1.7812 2.0898-4.5586 0.74219-6.6875l-11.781-18.605c2.7656-4.8906 4.9062-10.047 6.3906-15.406l21.449-4.793c2.4609-0.55078 4.2109-2.7344 4.2109-5.2539v-16.547c0-2.5195-1.75-4.7031-4.2109-5.2539l-21.449-4.793c-1.4844-5.3594-3.6211-10.52-6.3906-15.406l11.781-18.605c1.3477-2.1289 1.0391-4.9062-0.74219-6.6875l-11.688-11.688c-1.7812-1.7812-4.5625-2.0898-6.6914-0.73828l-18.594 11.805c-4.832-2.7461-9.9922-4.8906-15.41-6.4023l-4.793-21.465c-0.55078-2.4609-2.7344-4.2109-5.2539-4.2109l-16.555-0.007812c-2.5195 0-4.7031 1.75-5.2539 4.2109l-4.793 21.461c-5.418 1.5117-10.578 3.6562-15.41 6.4023l-18.594-11.805c-2.1289-1.3516-4.9102-1.043-6.6914 0.73828l-11.691 11.688c-1.7812 1.7812-2.0898 4.5586-0.74219 6.6875l11.781 18.605c-2.7656 4.8906-4.9062 10.051-6.3867 15.406l-21.449 4.793c-2.4609 0.55078-4.2109 2.7344-4.2109 5.2539v16.547c0 2.5195 1.75 4.7031 4.2109 5.2539l21.449 4.793c1.4883 5.3906 3.625 10.551 6.3867 15.414l-11.777 18.602c-1.3477 2.1289-1.0391 4.9062 0.74219 6.6875l11.691 11.691c1.7812 1.7812 4.5586 2.0898 6.6875 0.74219l18.605-11.781c4.8906 2.7656 10.051 4.9062 15.406 6.3867l4.793 21.449c0.55078 2.4609 2.7344 4.2109 5.2539 4.2109h16.547c2.5156 0.011719 4.6992-1.7383 5.25-4.1992zm-17.488-6.5586-4.5742-20.484c-0.45703-2.0391-2.0469-3.6289-4.0859-4.082-6.457-1.4336-12.617-3.9883-18.309-7.5859-1.7578-1.1133-4-1.1133-5.7578 0l-17.766 11.246-5.5938-5.5938 11.246-17.766c1.1172-1.7617 1.1133-4.0117-0.007812-5.7695-3.582-5.6289-6.1328-11.785-7.5781-18.297-0.45312-2.0391-2.043-3.6328-4.082-4.0859l-20.484-4.5742v-7.918l20.484-4.5742c2.0391-0.45703 3.6289-2.0469 4.082-4.0859 1.4336-6.457 3.9883-12.617 7.5859-18.309 1.1133-1.7578 1.1133-4 0-5.7578l-11.246-17.766 5.5938-5.5898 17.766 11.277c1.7656 1.1211 4.0195 1.1172 5.7852-0.007812 5.5742-3.5586 11.734-6.1211 18.312-7.6172 2.0273-0.46094 3.6094-2.0469 4.0625-4.0781l4.5742-20.484h7.918l4.5742 20.484c0.45312 2.0273 2.0352 3.6133 4.0625 4.0742 6.5781 1.4961 12.742 4.0586 18.312 7.6172 1.7617 1.125 4.0156 1.1289 5.7812 0.007812l17.766-11.277 5.5898 5.5898-11.246 17.766c-1.1133 1.7578-1.1133 4 0 5.7578 3.5977 5.6875 6.1523 11.848 7.5859 18.309 0.45313 2.0391 2.043 3.6328 4.082 4.0859l20.484 4.5742v7.918l-20.484 4.5742c-2.0391 0.45703-3.6289 2.0469-4.082 4.0859-1.4336 6.4609-3.9883 12.621-7.5859 18.309-1.1133 1.7578-1.1133 4 0 5.7578l11.246 17.766-5.5938 5.5938-17.766-11.246c-1.7656-1.1172-4.0117-1.1133-5.7695 0.007813-5.6289 3.582-11.785 6.1328-18.293 7.5781-2.0391 0.45312-3.6328 2.043-4.0859 4.082l-4.5742 20.484z"/>
  <path d="m426.36 413.36h-20.887v-17.621c0-2.9727-2.4102-5.3828-5.3828-5.3828h-57.172l-21.109-15.145c-0.91406-0.65625-2.0117-1.0117-3.1406-1.0117h-45.035c-2.9727 0-5.3828 2.4102-5.3828 5.3828 0.027344 126.21-0.074218 118.47 0.082032 119.37 0.085937 0.51562 0.30859 1.1992 0.63672 1.7695 0.99219 1.7227 2.8203 2.707 4.6641 2.707h126.46c2.3203 0 4.3828-1.4883 5.1094-3.6914l26.273-79.301c0.54297-1.6406 0.26563-3.4453-0.74609-4.8477-1.0156-1.4023-2.6367-2.2305-4.3672-2.2305zm-109.42-28.391 21.109 15.145c0.91406 0.65625 2.0117 1.0117 3.1406 1.0117h53.52v12.238h-94.801c-2.3203 0-4.3828 1.4883-5.1133 3.6914l-15.773 47.617v-79.699zm79.262 107.69h-115.11l22.703-68.531h115.11l-4.8672 14.688h-89.988c-2.9727 0-5.3828 2.4102-5.3828 5.3828 0 2.9727 2.4102 5.3828 5.3828 5.3828h86.418z"/>
  <path d="m598.67 413.36h-20.887v-17.621c0-2.9727-2.4102-5.3828-5.3828-5.3828h-51.07v-59.152c0-2.9727-2.4102-5.3828-5.3828-5.3828l-173.7-0.007812v-27.129c61.324-2.8242 110.35-53.594 110.35-115.6 0-63.812-51.918-115.73-115.73-115.73s-115.73 51.918-115.73 115.73c0 62.008 49.023 112.78 110.35 115.6v27.129h-162.6c-2.9727 0-5.3828 2.4102-5.3828 5.3828v54.047l-13.996-10.039c-0.91406-0.65625-2.0117-1.0117-3.1367-1.0117l-45.039 0.007812c-2.9727 0-5.3828 2.4102-5.3828 5.3828 0.007813 127.16-0.066406 118.64 0.12109 119.55 0.43359 2.1094 2.1055 3.832 4.4062 4.2266 0.68359 0.10938 20.258 0.046875 127.32 0.070312 2.3203 0 4.3828-1.4883 5.1133-3.6914l26.27-79.301c1.1523-3.4805-1.4414-7.0781-5.1133-7.0781h-20.887v-17.621c0-2.9727-2.4102-5.3828-5.3828-5.3828l-53.523-0.003906v-53.77h157.21v26.922c0 2.9727 2.4102 5.3828 5.3828 5.3828 2.9727 0 5.3828-2.4102 5.3828-5.3828v-26.922h168.31v50.418l-16.441-11.793c-0.91406-0.65625-2.0117-1.0117-3.1367-1.0117h-45.035c-2.9727 0-5.3828 2.4102-5.3828 5.3828 0.125 126.01-0.28125 118.52 0.30469 120.22 0.35156 1.0234 0.96094 1.8594 1.7266 2.4453 0.6875 0.55078 1.5391 0.94922 2.4961 1.1133 0.67578 0.10938 92.957 0.058594 127.31 0.070313 2.3203 0 4.3828-1.4883 5.1094-3.6914l26.273-79.301c1.1562-3.4766-1.4375-7.0742-5.1094-7.0742zm-366.77-230.28c0-57.875 47.086-104.96 104.96-104.96s104.96 47.086 104.96 104.96-47.086 104.96-104.96 104.96-104.96-47.086-104.96-104.96zm9.832 255.73h-89.984c-2.9727 0-5.3828 2.4102-5.3828 5.3828s2.4102 5.3828 5.3828 5.3828h86.418l-14.27 43.078-115.11 0.003906 22.703-68.531h115.11zm-19.332-25.453h-94.801c-2.3203 0-4.3828 1.4883-5.1133 3.6914l-15.773 47.617v-79.699h37.918c21.832 15.652 21.055 15.215 22.012 15.652 0.61719 0.28516 1.4883 0.5 2.2383 0.5h53.52zm228.93-28.391h37.918l21.113 15.145c0.91406 0.65625 2.0117 1.0117 3.1367 1.0117h53.52v12.238h-94.801c-2.3203 0-4.3828 1.4883-5.1094 3.6914l-15.773 47.617zm117.18 107.69h-115.11l22.703-68.531h115.11l-4.8672 14.688h-89.988c-2.9727 0-5.3828 2.4102-5.3828 5.3828 0 2.9727 2.4102 5.3828 5.3828 5.3828h86.418z"/>
  <path d="m147.1 277.35c16.332 0 29.617-13.285 29.617-29.617 0-16.328-13.285-29.617-29.617-29.617-16.332 0-29.617 13.285-29.617 29.617 0.003906 16.332 13.285 29.617 29.617 29.617zm0-48.461c10.391 0 18.848 8.4531 18.848 18.848 0 10.391-8.4531 18.848-18.848 18.848-10.391 0-18.848-8.4531-18.848-18.848 0-10.391 8.457-18.848 18.848-18.848z"/>
  <path d="m534.79 185.81c22.27 0 40.383-18.117 40.383-40.383 0-22.27-18.117-40.383-40.383-40.383-22.27 0-40.383 18.117-40.383 40.383 0 22.27 18.117 40.383 40.383 40.383zm0-70c16.328 0 29.617 13.285 29.617 29.617s-13.285 29.617-29.617 29.617c-16.328 0-29.617-13.285-29.617-29.617 0.003906-16.332 13.289-29.617 29.617-29.617z"/>
  <path d="m117.48 145.42c0 4.4609-3.6172 8.0781-8.0781 8.0781s-8.0781-3.6172-8.0781-8.0781 3.6172-8.0742 8.0781-8.0742 8.0781 3.6133 8.0781 8.0742"/>
  <path d="m192.87 86.191c0 4.4609-3.6172 8.0781-8.0781 8.0781-4.4609 0-8.0742-3.6172-8.0742-8.0781 0-4.4609 3.6133-8.0742 8.0742-8.0742 4.4609 0 8.0781 3.6133 8.0781 8.0742"/>
  <path d="m456.71 70.039c0 4.4609-3.6172 8.0781-8.0781 8.0781-4.4609 0-8.0781-3.6172-8.0781-8.0781 0-4.4609 3.6172-8.0781 8.0781-8.0781 4.4609 0 8.0781 3.6172 8.0781 8.0781"/>
  <path d="m575.18 220.81c0 4.4609-3.6172 8.0781-8.0781 8.0781-4.4609 0-8.0781-3.6172-8.0781-8.0781 0-4.4609 3.6172-8.0781 8.0781-8.0781 4.4609 0 8.0781 3.6172 8.0781 8.0781"/>
  <path d="m494.41 269.27c0 4.4609-3.6172 8.0781-8.0781 8.0781s-8.0781-3.6172-8.0781-8.0781c0-4.4609 3.6172-8.0781 8.0781-8.0781s8.0781 3.6172 8.0781 8.0781"/>
  <path d="m569.79 333.89c0 4.457-3.6133 8.0742-8.0742 8.0742-4.4609 0-8.0781-3.6172-8.0781-8.0742 0-4.4609 3.6172-8.0781 8.0781-8.0781 4.4609 0 8.0742 3.6172 8.0742 8.0781"/>
  <path d="m139.02 328.5c0 4.4609-3.6133 8.0781-8.0742 8.0781-4.4609 0-8.0781-3.6172-8.0781-8.0781s3.6172-8.0781 8.0781-8.0781c4.4609 0 8.0742 3.6172 8.0742 8.0781"/>
  <use x="70" y="576.152344" xlink:href="#t"/>
  <use x="73.953125" y="576.152344" xlink:href="#c"/>
  <use x="76.605469" y="576.152344" xlink:href="#b"/>
  <use x="80.257812" y="576.152344" xlink:href="#d"/>
  <use x="83.894531" y="576.152344" xlink:href="#a"/>
  <use x="86.464844" y="576.152344" xlink:href="#b"/>
  <use x="90.117188" y="576.152344" xlink:href="#i"/>
  <use x="95.847656" y="576.152344" xlink:href="#h"/>
  <use x="99.703125" y="576.152344" xlink:href="#g"/>
  <use x="105.085938" y="576.152344" xlink:href="#f"/>
  <use x="108.765625" y="576.152344" xlink:href="#s"/>
  <use x="110.609375" y="576.152344" xlink:href="#d"/>
  <use x="114.246094" y="576.152344" xlink:href="#a"/>
  <use x="116.816406" y="576.152344" xlink:href="#d"/>
  <use x="120.453125" y="576.152344" xlink:href="#c"/>
  <use x="123.105469" y="576.152344" xlink:href="#a"/>
  <use x="70" y="581.539062" xlink:href="#r"/>
  <use x="72.34375" y="581.539062" xlink:href="#c"/>
  <use x="75" y="581.539062" xlink:href="#e"/>
  <use x="78.699219" y="581.539062" xlink:href="#q"/>
  <use x="86.183594" y="581.539062" xlink:href="#a"/>
  <use x="88.757812" y="581.539062" xlink:href="#p"/>
  <use x="92.589844" y="581.539062" xlink:href="#b"/>
  <use x="98.117188" y="581.539062" xlink:href="#o"/>
  <use x="102.625" y="581.539062" xlink:href="#e"/>
  <use x="106.324219" y="581.539062" xlink:href="#n"/>
  <use x="110.15625" y="581.539062" xlink:href="#m"/>
  <use x="115.863281" y="581.539062" xlink:href="#l"/>
  <use x="119.808594" y="581.539062" xlink:href="#c"/>
  <use x="122.464844" y="581.539062" xlink:href="#e"/>
  <use x="126.164062" y="581.539062" xlink:href="#k"/>
  <use x="128.011719" y="581.539062" xlink:href="#b"/>
  <use x="131.664062" y="581.539062" xlink:href="#j"/>
  <use x="134.855469" y="581.539062" xlink:href="#a"/>
 </g>
</svg>
