<?xml version="1.0" encoding="UTF-8"?>
<svg fill="#fff" width="700pt" height="700pt" version="1.1" viewBox="0 0 700 700" xmlns="http://www.w3.org/2000/svg" xmlns:xlink="http://www.w3.org/1999/xlink">
 <defs>
  <symbol id="t" overflow="visible">
   <path d="m3.6094-0.21875c-0.1875 0.09375-0.38281 0.16797-0.57812 0.21875-0.19922 0.050781-0.41406 0.078125-0.64062 0.078125-0.64844 0-1.1641-0.17969-1.5469-0.54688-0.38672-0.36328-0.57812-0.86328-0.57812-1.5 0-0.625 0.19141-1.1172 0.57812-1.4844 0.38281-0.36328 0.89844-0.54688 1.5469-0.54688 0.22656 0 0.44141 0.027344 0.64062 0.078125 0.19531 0.042969 0.39062 0.11719 0.57812 0.21875v0.8125c-0.1875-0.13281-0.375-0.22656-0.5625-0.28125-0.17969-0.0625-0.36719-0.09375-0.5625-0.09375-0.36719 0-0.65234 0.11719-0.85938 0.34375-0.21094 0.23047-0.3125 0.54688-0.3125 0.95312s0.10156 0.73047 0.3125 0.96875c0.20703 0.23047 0.49219 0.34375 0.85938 0.34375 0.19531 0 0.38281-0.03125 0.5625-0.09375 0.1875-0.0625 0.375-0.15625 0.5625-0.28125z"/>
  </symbol>
  <symbol id="c" overflow="visible">
   <path d="m2.6406-2.1406c-0.085937-0.039063-0.16797-0.070313-0.25-0.09375-0.074219-0.019531-0.15234-0.03125-0.23438-0.03125-0.25 0-0.44531 0.078125-0.57812 0.23438-0.125 0.15625-0.1875 0.38281-0.1875 0.67188v1.3594h-0.9375v-2.9531h0.9375v0.48438c0.125-0.1875 0.26562-0.32031 0.42188-0.40625 0.15625-0.09375 0.34375-0.14062 0.5625-0.14062h0.09375c0.039062 0 0.097656 0.007813 0.17188 0.015625z"/>
  </symbol>
  <symbol id="b" overflow="visible">
   <path d="m3.3906-1.4844v0.26562h-2.2031c0.03125 0.23047 0.11328 0.40234 0.25 0.51562 0.13281 0.10547 0.32031 0.15625 0.5625 0.15625 0.19531 0 0.39844-0.023437 0.60938-0.078125 0.20703-0.0625 0.42188-0.15625 0.64062-0.28125v0.73438c-0.21875 0.085938-0.44531 0.14844-0.67188 0.1875-0.21875 0.039062-0.4375 0.0625-0.65625 0.0625-0.53125 0-0.94922-0.13281-1.25-0.40625-0.29297-0.26953-0.4375-0.64844-0.4375-1.1406 0-0.47656 0.14453-0.85156 0.4375-1.125 0.28906-0.28125 0.6875-0.42188 1.1875-0.42188 0.46875 0 0.83594 0.14062 1.1094 0.42188 0.28125 0.27344 0.42188 0.64062 0.42188 1.1094zm-0.96875-0.3125c0-0.17578-0.054687-0.31641-0.15625-0.42188-0.10547-0.11328-0.24219-0.17188-0.40625-0.17188-0.17969 0-0.32422 0.054687-0.4375 0.15625-0.11719 0.10547-0.1875 0.25-0.21875 0.4375z"/>
  </symbol>
  <symbol id="d" overflow="visible">
   <path d="m1.7812-1.3281c-0.19922 0-0.35156 0.039063-0.45312 0.10938-0.09375 0.0625-0.14062 0.15625-0.14062 0.28125s0.035156 0.22656 0.10938 0.29688c0.082031 0.0625 0.19531 0.09375 0.34375 0.09375 0.17578 0 0.32031-0.0625 0.4375-0.1875 0.125-0.13281 0.1875-0.29688 0.1875-0.48438v-0.10938zm1.4375-0.35938v1.6875h-0.95312v-0.4375c-0.125 0.17969-0.27344 0.30859-0.4375 0.39062-0.15625 0.082031-0.34375 0.125-0.5625 0.125-0.3125 0-0.5625-0.085938-0.75-0.26562-0.1875-0.17578-0.28125-0.41016-0.28125-0.70312 0-0.34375 0.11328-0.59375 0.34375-0.75 0.23828-0.16406 0.61328-0.25 1.125-0.25h0.5625v-0.078125c0-0.14453-0.0625-0.25-0.1875-0.3125-0.11719-0.070312-0.29688-0.10938-0.54688-0.10938-0.19922 0-0.38672 0.023437-0.5625 0.0625-0.16797 0.042969-0.32812 0.10156-0.48438 0.17188v-0.71875c0.20703-0.039062 0.41016-0.070312 0.60938-0.09375 0.20703-0.03125 0.41016-0.046875 0.60938-0.046875 0.53125 0 0.91406 0.10547 1.1562 0.3125 0.23828 0.21094 0.35938 0.54688 0.35938 1.0156z"/>
  </symbol>
  <symbol id="a" overflow="visible">
   <path d="m1.4844-3.7812v0.82812h0.96875v0.67188h-0.96875v1.25c0 0.14844 0.023437 0.24609 0.078125 0.29688 0.050781 0.042969 0.16016 0.0625 0.32812 0.0625h0.48438v0.67188h-0.8125c-0.375 0-0.64062-0.078125-0.79688-0.23438-0.14844-0.15625-0.21875-0.42188-0.21875-0.79688v-1.25h-0.46875v-0.67188h0.46875v-0.82812z"/>
  </symbol>
  <symbol id="i" overflow="visible">
   <path d="m2.4531-2.5156v-1.5781h0.95312v4.0938h-0.95312v-0.42188c-0.125 0.16797-0.26562 0.29297-0.42188 0.375-0.15625 0.082031-0.33984 0.125-0.54688 0.125-0.36719 0-0.66797-0.14453-0.90625-0.4375-0.23047-0.28906-0.34375-0.66016-0.34375-1.1094 0-0.45703 0.11328-0.82812 0.34375-1.1094 0.23828-0.28906 0.53906-0.4375 0.90625-0.4375 0.20703 0 0.39062 0.042969 0.54688 0.125 0.15625 0.074219 0.29688 0.19922 0.42188 0.375zm-0.60938 1.9062c0.19531 0 0.34766-0.070313 0.45312-0.21875 0.10156-0.14453 0.15625-0.35938 0.15625-0.64062s-0.054687-0.49219-0.15625-0.64062c-0.10547-0.14453-0.25781-0.21875-0.45312-0.21875-0.21094 0-0.36719 0.074219-0.46875 0.21875-0.10547 0.14844-0.15625 0.35938-0.15625 0.64062s0.050781 0.49609 0.15625 0.64062c0.10156 0.14844 0.25781 0.21875 0.46875 0.21875z"/>
  </symbol>
  <symbol id="h" overflow="visible">
   <path d="m2.0156-0.60938c0.20703 0 0.36328-0.070313 0.46875-0.21875 0.10156-0.14453 0.15625-0.35938 0.15625-0.64062s-0.054687-0.49219-0.15625-0.64062c-0.10547-0.14453-0.26172-0.21875-0.46875-0.21875-0.19922 0-0.35547 0.074219-0.46875 0.21875-0.10547 0.14844-0.15625 0.35938-0.15625 0.64062s0.050781 0.49609 0.15625 0.64062c0.11328 0.14844 0.26953 0.21875 0.46875 0.21875zm-0.625-1.9062c0.13281-0.17578 0.28125-0.30078 0.4375-0.375 0.15625-0.082031 0.33594-0.125 0.54688-0.125 0.36328 0 0.66016 0.14844 0.89062 0.4375 0.22656 0.28125 0.34375 0.65234 0.34375 1.1094 0 0.44922-0.11719 0.82031-0.34375 1.1094-0.23047 0.29297-0.52734 0.4375-0.89062 0.4375-0.21094 0-0.39062-0.042969-0.54688-0.125-0.15625-0.082031-0.30469-0.20703-0.4375-0.375v0.42188h-0.9375v-4.0938h0.9375z"/>
  </symbol>
  <symbol id="g" overflow="visible">
   <path d="m0.0625-2.9531h0.95312l0.78125 2 0.67188-2h0.95312l-1.25 3.2344c-0.125 0.32031-0.27344 0.54688-0.4375 0.67188-0.15625 0.13281-0.375 0.20312-0.65625 0.20312h-0.53125v-0.60938h0.28125c0.16406 0 0.28516-0.027344 0.35938-0.078125 0.070312-0.054688 0.12891-0.14844 0.17188-0.28125l0.015625-0.078125z"/>
  </symbol>
  <symbol id="f" overflow="visible">
   <path d="m0.5-3.9375h2.7344v0.78125h-1.7188v0.71875h1.6094v0.76562h-1.6094v1.6719h-1.0156z"/>
  </symbol>
  <symbol id="s" overflow="visible">
   <path d="m0.45312-4.0938h0.9375v4.0938h-0.9375z"/>
  </symbol>
  <symbol id="r" overflow="visible">
   <path d="m2.3906-4.0938v0.60938h-0.51562c-0.13672 0-0.23047 0.027344-0.28125 0.078125-0.054688 0.054688-0.078125 0.13672-0.078125 0.25v0.20312h0.79688v0.67188h-0.79688v2.2812h-0.9375v-2.2812h-0.46875v-0.67188h0.46875v-0.20312c0-0.32031 0.085937-0.55469 0.26562-0.70312 0.17578-0.15625 0.45312-0.23438 0.82812-0.23438z"/>
  </symbol>
  <symbol id="e" overflow="visible">
   <path d="m1.8594-2.3438c-0.21094 0-0.37109 0.078125-0.48438 0.23438-0.10547 0.14844-0.15625 0.35938-0.15625 0.64062s0.050781 0.5 0.15625 0.65625c0.11328 0.14844 0.27344 0.21875 0.48438 0.21875 0.19531 0 0.34766-0.070312 0.45312-0.21875 0.11328-0.15625 0.17188-0.375 0.17188-0.65625s-0.058594-0.49219-0.17188-0.64062c-0.10547-0.15625-0.25781-0.23438-0.45312-0.23438zm0-0.67188c0.5 0 0.89062 0.13672 1.1719 0.40625 0.28906 0.27344 0.4375 0.65234 0.4375 1.1406 0 0.48047-0.14844 0.85938-0.4375 1.1406-0.28125 0.27344-0.67188 0.40625-1.1719 0.40625-0.51172 0-0.91406-0.13281-1.2031-0.40625-0.28125-0.28125-0.42188-0.66016-0.42188-1.1406 0-0.48828 0.14062-0.86719 0.42188-1.1406 0.28906-0.26953 0.69141-0.40625 1.2031-0.40625z"/>
  </symbol>
  <symbol id="q" overflow="visible">
   <path d="m3.1875-2.4531c0.11328-0.1875 0.25391-0.32812 0.42188-0.42188 0.16406-0.09375 0.34766-0.14062 0.54688-0.14062 0.33203 0 0.58594 0.10547 0.76562 0.3125 0.17578 0.21094 0.26562 0.51172 0.26562 0.90625v1.7969h-0.9375v-1.5312-0.078125-0.10938c0-0.20703-0.03125-0.35938-0.09375-0.45312s-0.16406-0.14062-0.29688-0.14062c-0.17969 0-0.32031 0.078125-0.42188 0.23438-0.09375 0.14844-0.14062 0.35547-0.14062 0.625v1.4531h-0.95312v-1.5312c0-0.33203-0.03125-0.54688-0.09375-0.64062-0.054688-0.09375-0.14844-0.14062-0.28125-0.14062-0.1875 0-0.33594 0.078125-0.4375 0.23438-0.09375 0.14844-0.14062 0.35547-0.14062 0.625v1.4531h-0.9375v-2.9531h0.9375v0.4375c0.11328-0.16406 0.24219-0.28906 0.39062-0.375 0.15625-0.082031 0.32812-0.125 0.51562-0.125 0.19531 0 0.375 0.054687 0.53125 0.15625 0.15625 0.09375 0.27344 0.23047 0.35938 0.40625z"/>
  </symbol>
  <symbol id="p" overflow="visible">
   <path d="m3.4219-1.7969v1.7969h-0.95312v-1.375c0-0.25-0.007812-0.42188-0.015625-0.51562-0.011719-0.10156-0.03125-0.17578-0.0625-0.21875-0.03125-0.0625-0.085937-0.10938-0.15625-0.14062-0.0625-0.039062-0.13281-0.0625-0.20312-0.0625-0.19922 0-0.35547 0.078125-0.46875 0.23438-0.11719 0.14844-0.17188 0.35547-0.17188 0.625v1.4531h-0.9375v-4.0938h0.9375v1.5781c0.14453-0.17578 0.29688-0.30078 0.45312-0.375 0.16406-0.082031 0.34375-0.125 0.53125-0.125 0.34375 0 0.60156 0.10547 0.78125 0.3125 0.17578 0.21094 0.26562 0.51172 0.26562 0.90625z"/>
  </symbol>
  <symbol id="o" overflow="visible">
   <path d="m0.5-3.9375h1.125l1.4375 2.7031v-2.7031h0.95312v3.9375h-1.125l-1.4375-2.7031v2.7031h-0.95312z"/>
  </symbol>
  <symbol id="n" overflow="visible">
   <path d="m0.42188-1.1406v-1.8125h0.95312v0.29688c0 0.16797-0.007812 0.37109-0.015625 0.60938v0.48438c0 0.23047 0.003906 0.39844 0.015625 0.5 0.019531 0.10547 0.039062 0.18359 0.0625 0.23438 0.039062 0.0625 0.09375 0.10938 0.15625 0.14062s0.13281 0.046875 0.21875 0.046875c0.19531 0 0.34766-0.070313 0.45312-0.21875 0.11328-0.15625 0.17188-0.36719 0.17188-0.64062v-1.4531h0.95312v2.9531h-0.95312v-0.42188c-0.13672 0.16797-0.28906 0.29297-0.45312 0.375-0.15625 0.082031-0.32812 0.125-0.51562 0.125-0.34375 0-0.60547-0.10156-0.78125-0.3125-0.17969-0.20703-0.26562-0.50781-0.26562-0.90625z"/>
  </symbol>
  <symbol id="m" overflow="visible">
   <path d="m3.4219-1.7969v1.7969h-0.95312v-1.375c0-0.25-0.007812-0.42188-0.015625-0.51562-0.011719-0.10156-0.03125-0.17578-0.0625-0.21875-0.03125-0.0625-0.085937-0.10938-0.15625-0.14062-0.0625-0.039062-0.13281-0.0625-0.20312-0.0625-0.19922 0-0.35547 0.078125-0.46875 0.23438-0.11719 0.14844-0.17188 0.35547-0.17188 0.625v1.4531h-0.9375v-2.9531h0.9375v0.4375c0.14453-0.17578 0.29688-0.30078 0.45312-0.375 0.16406-0.082031 0.34375-0.125 0.53125-0.125 0.34375 0 0.60156 0.10547 0.78125 0.3125 0.17578 0.21094 0.26562 0.51172 0.26562 0.90625z"/>
  </symbol>
  <symbol id="l" overflow="visible">
   <path d="m0.5-3.9375h1.6719c0.5 0 0.88281 0.11719 1.1562 0.34375 0.26953 0.21875 0.40625 0.53906 0.40625 0.95312 0 0.40625-0.13672 0.72656-0.40625 0.95312-0.27344 0.21875-0.65625 0.32812-1.1562 0.32812h-0.65625v1.3594h-1.0156zm1.0156 0.73438v1.1094h0.54688c0.19531 0 0.34766-0.046875 0.45312-0.14062 0.11328-0.10156 0.17188-0.23828 0.17188-0.40625 0-0.17578-0.058594-0.3125-0.17188-0.40625-0.10547-0.10156-0.25781-0.15625-0.45312-0.15625z"/>
  </symbol>
  <symbol id="k" overflow="visible">
   <path d="m0.45312-2.9531h0.9375v2.9062c0 0.39453-0.09375 0.69141-0.28125 0.89062-0.1875 0.20703-0.46484 0.3125-0.82812 0.3125h-0.45312v-0.60938h0.15625c0.17578 0 0.29688-0.042969 0.35938-0.125 0.070312-0.085937 0.10938-0.24219 0.10938-0.46875zm0-1.1406h0.9375v0.76562h-0.9375z"/>
  </symbol>
  <symbol id="j" overflow="visible">
   <path d="m2.8281-2.8594v0.76562c-0.125-0.082031-0.25781-0.14453-0.39062-0.1875-0.125-0.039062-0.25781-0.0625-0.39062-0.0625-0.26172 0-0.46484 0.078125-0.60938 0.23438-0.14844 0.14844-0.21875 0.35938-0.21875 0.64062 0 0.27344 0.070312 0.48438 0.21875 0.64062 0.14453 0.15625 0.34766 0.23438 0.60938 0.23438 0.14453 0 0.28516-0.019531 0.42188-0.0625 0.13281-0.050781 0.25391-0.11719 0.35938-0.20312v0.76562c-0.14844 0.0625-0.29688 0.10156-0.45312 0.125-0.14844 0.03125-0.29688 0.046875-0.45312 0.046875-0.53125 0-0.94922-0.13281-1.25-0.40625-0.29297-0.28125-0.4375-0.66016-0.4375-1.1406 0-0.48828 0.14453-0.86719 0.4375-1.1406 0.30078-0.26953 0.71875-0.40625 1.25-0.40625 0.15625 0 0.30469 0.015625 0.45312 0.046875 0.15625 0.023438 0.30469 0.058594 0.45312 0.10938z"/>
  </symbol>
 </defs>
 <g>
  <path d="m516.24 181.98c-2.9375-0.46484-5.6992 1.5312-6.1641 4.4688-0.46875 2.9375 1.5312 5.6992 4.4688 6.168 26.082 4.1641 49.246 19.406 63.555 41.828 1.6016 2.5078 4.9297 3.2422 7.4336 1.6406 2.5078-1.6016 3.2422-4.9297 1.6406-7.4375-15.957-25.012-41.812-42.02-70.934-46.668z"/>
  <path d="m159.29 198.25c2.9492-0.37109 5.043-3.0664 4.668-6.0156-8.9297-70.777 46.488-133 117.23-133 40.527 0 77.699 20.27 99.438 54.223 1.6055 2.5039 4.9336 3.2344 7.4375 1.6328 2.5039-1.6055 3.2344-4.9336 1.6328-7.4375-23.727-37.059-64.293-59.184-108.51-59.184-77.215 0-137.65 67.91-127.92 145.12 0.375 2.918 3.0352 5.0352 6.0195 4.6641z"/>
  <path d="m277.3 107.7c-35.355 0-64.117 28.762-64.117 64.117 0 2.9727 2.4102 5.3828 5.3828 5.3828 2.9727 0 5.3828-2.4102 5.3828-5.3828 0-29.418 23.93-53.348 53.348-53.348 2.9727 0 5.3828-2.4102 5.3828-5.3828 0.007812-2.9766-2.4062-5.3867-5.3789-5.3867z"/>
  <path d="m175 45.77c0 4.4609-3.6172 8.0781-8.0781 8.0781-4.457 0-8.0742-3.6172-8.0742-8.0781 0-4.4609 3.6172-8.0781 8.0742-8.0781 4.4609 0 8.0781 3.6172 8.0781 8.0781"/>
  <path d="m438.85 56.539c0 4.4609-3.6172 8.0781-8.0781 8.0781-4.4609 0-8.0781-3.6172-8.0781-8.0781 0-4.4609 3.6172-8.0781 8.0781-8.0781 4.4609 0 8.0781 3.6172 8.0781 8.0781"/>
  <path d="m589.62 164.23c0 4.4609-3.6172 8.0781-8.0781 8.0781-4.4609 0-8.0781-3.6172-8.0781-8.0781 0-4.4609 3.6172-8.0781 8.0781-8.0781 4.4609 0 8.0781 3.6172 8.0781 8.0781"/>
  <path d="m131.92 158.85c0 4.4609-3.6133 8.0742-8.0742 8.0742-4.4609 0-8.0781-3.6133-8.0781-8.0742 0-4.4609 3.6172-8.0781 8.0781-8.0781 4.4609 0 8.0742 3.6172 8.0742 8.0781"/>
  <path d="m535.77 134.62c20.785 0 37.691-16.91 37.691-37.691 0-20.785-16.91-37.691-37.691-37.691-20.785 0-37.691 16.91-37.691 37.691 0 20.785 16.91 37.691 37.691 37.691zm0-64.613c14.844 0 26.922 12.078 26.922 26.922s-12.078 26.922-26.922 26.922-26.922-12.078-26.922-26.922 12.078-26.922 26.922-26.922z"/>
  <path d="m352.69 290.23c-15.461 0-28.035 12.578-28.035 28.035 0 15.43 12.578 27.984 28.035 27.984 15.43 0 27.984-12.555 27.984-27.984 0-15.457-12.555-28.035-27.984-28.035zm0 45.254c-9.5195 0-17.266-7.7227-17.266-17.215 0-9.5195 7.7461-17.266 17.266-17.266 9.4922 0 17.215 7.7461 17.215 17.266 0 9.4922-7.7227 17.215-17.215 17.215z"/>
  <path d="m352.69 258.75c-32.816 0-59.516 26.699-59.516 59.52 0 32.789 26.699 59.469 59.516 59.469 32.789 0 59.469-26.676 59.469-59.469 0-32.82-26.68-59.52-59.469-59.52zm0 108.21c-26.879 0-48.746-21.848-48.746-48.699 0-26.879 21.867-48.75 48.746-48.75 26.852 0 48.699 21.867 48.699 48.75 0 26.852-21.848 48.699-48.699 48.699z"/>
  <path d="m494.92 207.77c2.8359-44.082-32.23-81.527-76.422-81.527-15.23 0-30.129 4.5742-42.688 12.996-15.457-38.484-52.598-63.852-94.621-63.852-56.246 0-102.01 45.762-102.01 102.01 0 10.578 1.6172 20.965 4.8125 30.965-37.449 5.2227-65.836 37.25-65.836 75.828 0 41.309 32.324 74.914 73.586 76.508 0.21094 0.007813 82.52 0.027344 83.059 0.027344 4.1992 0 6.7227-4.5703 4.6484-8.1055-2.5273-5.3672-4.4531-10.992-5.7266-16.719-0.45312-2.0391-2.043-3.6328-4.082-4.0859l-29.516-6.5938 0.003906-13.965 29.516-6.5938c2.0391-0.45703 3.6289-2.0469 4.082-4.0859 2.0117-9.0469 5.582-17.668 10.621-25.633 1.1133-1.7578 1.1133-4 0-5.7578l-16.203-25.598 9.8672-9.8672 25.594 16.246c1.7656 1.1211 4.0195 1.1172 5.7852-0.007813 7.8047-4.9844 16.43-8.5703 25.637-10.664 2.0273-0.46094 3.6094-2.0469 4.0625-4.0781l6.5938-29.516h13.973l6.5938 29.516c0.45312 2.0273 2.0352 3.6172 4.0625 4.0781 9.207 2.0938 17.832 5.6797 25.637 10.664 1.7617 1.125 4.0195 1.1289 5.7852 0.007813l25.594-16.246 9.8672 9.8672-16.203 25.598c-1.1133 1.7578-1.1133 4 0 5.7578 5.0352 7.9609 8.6094 16.586 10.621 25.633 0.45312 2.0391 2.043 3.6328 4.082 4.0859l29.516 6.5938v13.973l-29.516 6.5938c-2.0391 0.45703-3.6289 2.0469-4.082 4.0859-1.3047 5.8594-3.3008 11.629-5.9414 17.145-1.7031 3.5625 0.89062 7.707 4.8555 7.707 8.6211 0.003907 60.672 0.015626 69.348 0.015626 42.227 0 76.578-34.355 76.578-76.582-0.007812-44.148-37.406-79.262-81.535-76.422zm4.9492 142.23-61.227-0.015625c1.0234-2.7617 1.9102-5.5664 2.6562-8.3906l30.457-6.8047c2.4609-0.55078 4.2109-2.7344 4.2109-5.2539v-22.602c0-2.5234-1.75-4.7031-4.2109-5.2539l-30.457-6.8047c-2.0859-7.9453-5.25-15.574-9.4336-22.758l16.723-26.414c1.3477-2.1289 1.0391-4.9062-0.74219-6.6875l-15.965-15.965c-1.7812-1.7812-4.5625-2.0898-6.6914-0.73828l-26.406 16.762c-7.0859-4.1523-14.715-7.3203-22.758-9.4609l-6.8047-30.473c-0.55078-2.4609-2.7344-4.2109-5.2539-4.2109h-22.602c-2.5195 0-4.7031 1.75-5.2539 4.2109l-6.8047 30.473c-8.0469 2.1367-15.676 5.3086-22.758 9.4609l-26.402-16.762c-2.125-1.3516-4.9102-1.043-6.6914 0.73828l-15.965 15.965c-1.7812 1.7812-2.0898 4.5586-0.74219 6.6875l16.723 26.414c-4.1836 7.1836-7.3438 14.812-9.4336 22.758l-30.457 6.8047c-2.4609 0.55078-4.2109 2.7344-4.2109 5.2539l-0.007813 22.602c0 2.5195 1.75 4.7031 4.2109 5.2539l30.457 6.8047c0.74219 2.8203 1.625 5.6094 2.6406 8.3594l-74.609-0.023437c-35.41-1.418-63.133-30.273-63.133-65.742 0-35.234 27.551-64.109 62.723-65.734 3.6914-0.17188 6.1211-3.9336 4.7539-7.3711-4.2812-10.762-6.4531-22.098-6.4531-33.691 0-50.309 40.93-91.238 91.238-91.238 39.824 0 74.742 25.469 86.891 63.375 1.1641 3.6289 5.6211 4.9297 8.5547 2.5117 11.742-9.6914 26.609-15.027 41.863-15.027 40.164 0 71.258 35.91 65.023 76.008-0.55859 3.5898 2.5352 6.707 6.1484 6.1484 40.184-6.2383 76.008 24.938 76.008 65.023 0 36.285-29.523 65.809-65.809 65.809z"/>
  <path d="m578.85 379.62c0 4.4609-3.6172 8.0742-8.0781 8.0742-4.4609 0-8.0781-3.6133-8.0781-8.0742 0-4.4609 3.6172-8.0781 8.0781-8.0781 4.4609 0 8.0781 3.6172 8.0781 8.0781"/>
  <path d="m530.38 465.77c0 4.4609-3.6133 8.0781-8.0742 8.0781-4.4609 0-8.0781-3.6172-8.0781-8.0781 0-4.4609 3.6172-8.0781 8.0781-8.0781 4.4609 0 8.0742 3.6172 8.0742 8.0781"/>
  <path d="m207.31 385c0 4.4609-3.6172 8.0781-8.0781 8.0781-4.4609 0-8.0781-3.6172-8.0781-8.0781s3.6172-8.0781 8.0781-8.0781c4.4609 0 8.0781 3.6172 8.0781 8.0781"/>
  <path d="m148.07 492.69c0 4.4609-3.6172 8.0781-8.0781 8.0781-4.4609 0-8.0781-3.6172-8.0781-8.0781 0-4.4609 3.6172-8.0742 8.0781-8.0742 4.4609 0 8.0781 3.6133 8.0781 8.0742"/>
  <path d="m288.07 428.62v-51.691c0-2.9727-2.4102-5.3828-5.3828-5.3828s-5.3828 2.4102-5.3828 5.3828v51.691c0 9.5547-7.3633 17.414-16.711 18.227-2.5312-12.234-13.391-21.457-26.363-21.457-14.844 0-26.922 12.078-26.922 26.922s12.078 26.922 26.922 26.922c13.02 0 23.906-9.2891 26.391-21.586 15.273-0.84375 27.449-13.539 27.449-29.027zm-53.844 39.844c-8.9062 0-16.152-7.2461-16.152-16.152 0-8.9102 7.2461-16.152 16.152-16.152s16.152 7.2461 16.152 16.152-7.2461 16.152-16.152 16.152z"/>
  <path d="m331.15 398.46c-2.9727 0-5.3828 2.4102-5.3828 5.3828v73.23c0 9.5547-7.3633 17.414-16.711 18.227-2.5312-12.234-13.391-21.457-26.363-21.457-14.844 0-26.922 12.078-26.922 26.922s12.078 26.922 26.922 26.922c13.02 0 23.906-9.2891 26.391-21.586 15.281-0.84375 27.457-13.539 27.457-29.031v-73.23c-0.007813-2.9688-2.418-5.3789-5.3906-5.3789zm-48.461 118.46c-8.9062 0-16.152-7.2461-16.152-16.152 0-8.9102 7.2461-16.152 16.152-16.152s16.152 7.2461 16.152 16.152-7.2461 16.152-16.152 16.152z"/>
  <path d="m471.15 425.39c-12.973 0-23.832 9.2227-26.363 21.457-9.3516-0.8125-16.711-8.6719-16.711-18.227v-51.691c0-2.9727-2.4102-5.3828-5.3828-5.3828-2.9727 0-5.3828 2.4102-5.3828 5.3828v51.691c0 15.488 12.176 28.184 27.457 29.031 2.4844 12.297 13.371 21.586 26.391 21.586 14.844 0 26.922-12.078 26.922-26.922-0.007812-14.852-12.086-26.926-26.93-26.926zm0 43.074c-8.9062 0-16.152-7.2461-16.152-16.152 0-8.9102 7.2461-16.152 16.152-16.152 8.9102 0 16.152 7.2461 16.152 16.152s-7.2461 16.152-16.152 16.152z"/>
  <path d="m422.69 473.85c-12.973 0-23.832 9.2227-26.363 21.457-9.3516-0.8125-16.711-8.6719-16.711-18.227v-73.23c0-2.9727-2.4102-5.3828-5.3828-5.3828s-5.3828 2.4102-5.3828 5.3828v73.23c0 15.488 12.176 28.184 27.457 29.031 2.4844 12.297 13.371 21.586 26.391 21.586 14.844 0 26.922-12.078 26.922-26.922-0.007813-14.848-12.086-26.926-26.93-26.926zm0 43.074c-8.9062 0-16.152-7.2461-16.152-16.152 0-8.9102 7.2461-16.152 16.152-16.152 8.9102 0 16.152 7.2461 16.152 16.152s-7.2461 16.152-16.152 16.152z"/>
  <path d="m131.92 382.31c-14.844 0-26.922 12.078-26.922 26.922s12.078 26.922 26.922 26.922 26.922-12.078 26.922-26.922-12.078-26.922-26.922-26.922zm0 43.078c-8.9062 0-16.152-7.2461-16.152-16.152 0-8.9102 7.2461-16.152 16.152-16.152s16.152 7.2461 16.152 16.152c0 8.9023-7.2461 16.152-16.152 16.152z"/>
  <path d="m390.38 387.7v53.848c0 2.9727 2.4102 5.3828 5.3828 5.3828s5.3828-2.4102 5.3828-5.3828v-53.848c0-2.9727-2.4102-5.3828-5.3828-5.3828s-5.3828 2.4102-5.3828 5.3828z"/>
  <path d="m352.69 387.7c-2.9727 0-5.3828 2.4102-5.3828 5.3828v43.078c0 2.9727 2.4102 5.3828 5.3828 5.3828s5.3828-2.4102 5.3828-5.3828v-43.078c0-2.9727-2.4102-5.3828-5.3828-5.3828z"/>
  <path d="m304.23 420v37.691c0 2.9727 2.4102 5.3828 5.3828 5.3828 2.9727 0 5.3828-2.4102 5.3828-5.3828v-37.691c0-2.9727-2.4102-5.3828-5.3828-5.3828-2.9727 0-5.3828 2.4102-5.3828 5.3828z"/>
  <use x="70" y="576.152344" xlink:href="#t"/>
  <use x="73.953125" y="576.152344" xlink:href="#c"/>
  <use x="76.605469" y="576.152344" xlink:href="#b"/>
  <use x="80.257812" y="576.152344" xlink:href="#d"/>
  <use x="83.894531" y="576.152344" xlink:href="#a"/>
  <use x="86.464844" y="576.152344" xlink:href="#b"/>
  <use x="90.117188" y="576.152344" xlink:href="#i"/>
  <use x="95.847656" y="576.152344" xlink:href="#h"/>
  <use x="99.703125" y="576.152344" xlink:href="#g"/>
  <use x="105.085938" y="576.152344" xlink:href="#f"/>
  <use x="108.765625" y="576.152344" xlink:href="#s"/>
  <use x="110.609375" y="576.152344" xlink:href="#d"/>
  <use x="114.246094" y="576.152344" xlink:href="#a"/>
  <use x="116.816406" y="576.152344" xlink:href="#d"/>
  <use x="120.453125" y="576.152344" xlink:href="#c"/>
  <use x="123.105469" y="576.152344" xlink:href="#a"/>
  <use x="70" y="581.539062" xlink:href="#r"/>
  <use x="72.34375" y="581.539062" xlink:href="#c"/>
  <use x="75" y="581.539062" xlink:href="#e"/>
  <use x="78.699219" y="581.539062" xlink:href="#q"/>
  <use x="86.183594" y="581.539062" xlink:href="#a"/>
  <use x="88.757812" y="581.539062" xlink:href="#p"/>
  <use x="92.589844" y="581.539062" xlink:href="#b"/>
  <use x="98.117188" y="581.539062" xlink:href="#o"/>
  <use x="102.625" y="581.539062" xlink:href="#e"/>
  <use x="106.324219" y="581.539062" xlink:href="#n"/>
  <use x="110.15625" y="581.539062" xlink:href="#m"/>
  <use x="115.863281" y="581.539062" xlink:href="#l"/>
  <use x="119.808594" y="581.539062" xlink:href="#c"/>
  <use x="122.464844" y="581.539062" xlink:href="#e"/>
  <use x="126.164062" y="581.539062" xlink:href="#k"/>
  <use x="128.011719" y="581.539062" xlink:href="#b"/>
  <use x="131.664062" y="581.539062" xlink:href="#j"/>
  <use x="134.855469" y="581.539062" xlink:href="#a"/>
 </g>
</svg>
