<?xml version="1.0" ?><svg viewBox="0 0 48 48" xmlns="http://www.w3.org/2000/svg"><title/><g data-name="31-Computer" id="_31-Computer"><path d="M45,0H36V2h9a1,1,0,0,1,1,1V27H2V3A1,1,0,0,1,3,2H7V0H3A3,3,0,0,0,0,3V35a3,3,0,0,0,3,3H16v4.28l-2.32.77A1,1,0,0,0,13,44v2H11v2H37V46H35V44a1,1,0,0,0-.68-.95L32,42.28V38H45a3,3,0,0,0,3-3V3A3,3,0,0,0,45,0ZM33,44.72V46H15V44.72L17.16,44H28V42H18V38H30v5a1,1,0,0,0,.68.95ZM46,35a1,1,0,0,1-1,1H3a1,1,0,0,1-1-1V29H46Z"/><path d="M40,20H38V8a1,1,0,0,0-.29-.71l-7-7A1,1,0,0,0,30,0H13a3,3,0,0,0-3,3V20H8v2H40ZM31,3.41,34.59,7H32a1,1,0,0,1-1-1ZM36,20H12V3a1,1,0,0,1,1-1H29V6a3,3,0,0,0,3,3h4Z"/><rect height="2" width="14" x="17" y="11"/><rect height="2" width="9" x="17" y="15"/></g></svg>