<?xml version="1.0" encoding="UTF-8"?>
<svg  fill="#fff" width="700pt" height="700pt" version="1.1" viewBox="0 0 700 700" xmlns="http://www.w3.org/2000/svg" xmlns:xlink="http://www.w3.org/1999/xlink">
 <defs>
  <symbol id="t" overflow="visible">
   <path d="m3.6094-0.21875c-0.1875 0.09375-0.38281 0.16797-0.57812 0.21875-0.19922 0.050781-0.41406 0.078125-0.64062 0.078125-0.64844 0-1.1641-0.17969-1.5469-0.54688-0.38672-0.36328-0.57812-0.86328-0.57812-1.5 0-0.625 0.19141-1.1172 0.57812-1.4844 0.38281-0.36328 0.89844-0.54688 1.5469-0.54688 0.22656 0 0.44141 0.027344 0.64062 0.078125 0.19531 0.042969 0.39062 0.11719 0.57812 0.21875v0.8125c-0.1875-0.13281-0.375-0.22656-0.5625-0.28125-0.17969-0.0625-0.36719-0.09375-0.5625-0.09375-0.36719 0-0.65234 0.11719-0.85938 0.34375-0.21094 0.23047-0.3125 0.54688-0.3125 0.95312s0.10156 0.73047 0.3125 0.96875c0.20703 0.23047 0.49219 0.34375 0.85938 0.34375 0.19531 0 0.38281-0.03125 0.5625-0.09375 0.1875-0.0625 0.375-0.15625 0.5625-0.28125z"/>
  </symbol>
  <symbol id="c" overflow="visible">
   <path d="m2.6406-2.1406c-0.085937-0.039063-0.16797-0.070313-0.25-0.09375-0.074219-0.019531-0.15234-0.03125-0.23438-0.03125-0.25 0-0.44531 0.078125-0.57812 0.23438-0.125 0.15625-0.1875 0.38281-0.1875 0.67188v1.3594h-0.9375v-2.9531h0.9375v0.48438c0.125-0.1875 0.26562-0.32031 0.42188-0.40625 0.15625-0.09375 0.34375-0.14062 0.5625-0.14062h0.09375c0.039062 0 0.097656 0.007813 0.17188 0.015625z"/>
  </symbol>
  <symbol id="b" overflow="visible">
   <path d="m3.3906-1.4844v0.26562h-2.2031c0.03125 0.23047 0.11328 0.40234 0.25 0.51562 0.13281 0.10547 0.32031 0.15625 0.5625 0.15625 0.19531 0 0.39844-0.023437 0.60938-0.078125 0.20703-0.0625 0.42188-0.15625 0.64062-0.28125v0.73438c-0.21875 0.085938-0.44531 0.14844-0.67188 0.1875-0.21875 0.039062-0.4375 0.0625-0.65625 0.0625-0.53125 0-0.94922-0.13281-1.25-0.40625-0.29297-0.26953-0.4375-0.64844-0.4375-1.1406 0-0.47656 0.14453-0.85156 0.4375-1.125 0.28906-0.28125 0.6875-0.42188 1.1875-0.42188 0.46875 0 0.83594 0.14062 1.1094 0.42188 0.28125 0.27344 0.42188 0.64062 0.42188 1.1094zm-0.96875-0.3125c0-0.17578-0.054687-0.31641-0.15625-0.42188-0.10547-0.11328-0.24219-0.17188-0.40625-0.17188-0.17969 0-0.32422 0.054687-0.4375 0.15625-0.11719 0.10547-0.1875 0.25-0.21875 0.4375z"/>
  </symbol>
  <symbol id="d" overflow="visible">
   <path d="m1.7812-1.3281c-0.19922 0-0.35156 0.039063-0.45312 0.10938-0.09375 0.0625-0.14062 0.15625-0.14062 0.28125s0.035156 0.22656 0.10938 0.29688c0.082031 0.0625 0.19531 0.09375 0.34375 0.09375 0.17578 0 0.32031-0.0625 0.4375-0.1875 0.125-0.13281 0.1875-0.29688 0.1875-0.48438v-0.10938zm1.4375-0.35938v1.6875h-0.95312v-0.4375c-0.125 0.17969-0.27344 0.30859-0.4375 0.39062-0.15625 0.082031-0.34375 0.125-0.5625 0.125-0.3125 0-0.5625-0.085938-0.75-0.26562-0.1875-0.17578-0.28125-0.41016-0.28125-0.70312 0-0.34375 0.11328-0.59375 0.34375-0.75 0.23828-0.16406 0.61328-0.25 1.125-0.25h0.5625v-0.078125c0-0.14453-0.0625-0.25-0.1875-0.3125-0.11719-0.070312-0.29688-0.10938-0.54688-0.10938-0.19922 0-0.38672 0.023437-0.5625 0.0625-0.16797 0.042969-0.32812 0.10156-0.48438 0.17188v-0.71875c0.20703-0.039062 0.41016-0.070312 0.60938-0.09375 0.20703-0.03125 0.41016-0.046875 0.60938-0.046875 0.53125 0 0.91406 0.10547 1.1562 0.3125 0.23828 0.21094 0.35938 0.54688 0.35938 1.0156z"/>
  </symbol>
  <symbol id="a" overflow="visible">
   <path d="m1.4844-3.7812v0.82812h0.96875v0.67188h-0.96875v1.25c0 0.14844 0.023437 0.24609 0.078125 0.29688 0.050781 0.042969 0.16016 0.0625 0.32812 0.0625h0.48438v0.67188h-0.8125c-0.375 0-0.64062-0.078125-0.79688-0.23438-0.14844-0.15625-0.21875-0.42188-0.21875-0.79688v-1.25h-0.46875v-0.67188h0.46875v-0.82812z"/>
  </symbol>
  <symbol id="i" overflow="visible">
   <path d="m2.4531-2.5156v-1.5781h0.95312v4.0938h-0.95312v-0.42188c-0.125 0.16797-0.26562 0.29297-0.42188 0.375-0.15625 0.082031-0.33984 0.125-0.54688 0.125-0.36719 0-0.66797-0.14453-0.90625-0.4375-0.23047-0.28906-0.34375-0.66016-0.34375-1.1094 0-0.45703 0.11328-0.82812 0.34375-1.1094 0.23828-0.28906 0.53906-0.4375 0.90625-0.4375 0.20703 0 0.39062 0.042969 0.54688 0.125 0.15625 0.074219 0.29688 0.19922 0.42188 0.375zm-0.60938 1.9062c0.19531 0 0.34766-0.070313 0.45312-0.21875 0.10156-0.14453 0.15625-0.35938 0.15625-0.64062s-0.054687-0.49219-0.15625-0.64062c-0.10547-0.14453-0.25781-0.21875-0.45312-0.21875-0.21094 0-0.36719 0.074219-0.46875 0.21875-0.10547 0.14844-0.15625 0.35938-0.15625 0.64062s0.050781 0.49609 0.15625 0.64062c0.10156 0.14844 0.25781 0.21875 0.46875 0.21875z"/>
  </symbol>
  <symbol id="h" overflow="visible">
   <path d="m2.0156-0.60938c0.20703 0 0.36328-0.070313 0.46875-0.21875 0.10156-0.14453 0.15625-0.35938 0.15625-0.64062s-0.054687-0.49219-0.15625-0.64062c-0.10547-0.14453-0.26172-0.21875-0.46875-0.21875-0.19922 0-0.35547 0.074219-0.46875 0.21875-0.10547 0.14844-0.15625 0.35938-0.15625 0.64062s0.050781 0.49609 0.15625 0.64062c0.11328 0.14844 0.26953 0.21875 0.46875 0.21875zm-0.625-1.9062c0.13281-0.17578 0.28125-0.30078 0.4375-0.375 0.15625-0.082031 0.33594-0.125 0.54688-0.125 0.36328 0 0.66016 0.14844 0.89062 0.4375 0.22656 0.28125 0.34375 0.65234 0.34375 1.1094 0 0.44922-0.11719 0.82031-0.34375 1.1094-0.23047 0.29297-0.52734 0.4375-0.89062 0.4375-0.21094 0-0.39062-0.042969-0.54688-0.125-0.15625-0.082031-0.30469-0.20703-0.4375-0.375v0.42188h-0.9375v-4.0938h0.9375z"/>
  </symbol>
  <symbol id="g" overflow="visible">
   <path d="m0.0625-2.9531h0.95312l0.78125 2 0.67188-2h0.95312l-1.25 3.2344c-0.125 0.32031-0.27344 0.54688-0.4375 0.67188-0.15625 0.13281-0.375 0.20312-0.65625 0.20312h-0.53125v-0.60938h0.28125c0.16406 0 0.28516-0.027344 0.35938-0.078125 0.070312-0.054688 0.12891-0.14844 0.17188-0.28125l0.015625-0.078125z"/>
  </symbol>
  <symbol id="f" overflow="visible">
   <path d="m0.5-3.9375h2.7344v0.78125h-1.7188v0.71875h1.6094v0.76562h-1.6094v1.6719h-1.0156z"/>
  </symbol>
  <symbol id="s" overflow="visible">
   <path d="m0.45312-4.0938h0.9375v4.0938h-0.9375z"/>
  </symbol>
  <symbol id="r" overflow="visible">
   <path d="m2.3906-4.0938v0.60938h-0.51562c-0.13672 0-0.23047 0.027344-0.28125 0.078125-0.054688 0.054688-0.078125 0.13672-0.078125 0.25v0.20312h0.79688v0.67188h-0.79688v2.2812h-0.9375v-2.2812h-0.46875v-0.67188h0.46875v-0.20312c0-0.32031 0.085937-0.55469 0.26562-0.70312 0.17578-0.15625 0.45312-0.23438 0.82812-0.23438z"/>
  </symbol>
  <symbol id="e" overflow="visible">
   <path d="m1.8594-2.3438c-0.21094 0-0.37109 0.078125-0.48438 0.23438-0.10547 0.14844-0.15625 0.35938-0.15625 0.64062s0.050781 0.5 0.15625 0.65625c0.11328 0.14844 0.27344 0.21875 0.48438 0.21875 0.19531 0 0.34766-0.070312 0.45312-0.21875 0.11328-0.15625 0.17188-0.375 0.17188-0.65625s-0.058594-0.49219-0.17188-0.64062c-0.10547-0.15625-0.25781-0.23438-0.45312-0.23438zm0-0.67188c0.5 0 0.89062 0.13672 1.1719 0.40625 0.28906 0.27344 0.4375 0.65234 0.4375 1.1406 0 0.48047-0.14844 0.85938-0.4375 1.1406-0.28125 0.27344-0.67188 0.40625-1.1719 0.40625-0.51172 0-0.91406-0.13281-1.2031-0.40625-0.28125-0.28125-0.42188-0.66016-0.42188-1.1406 0-0.48828 0.14062-0.86719 0.42188-1.1406 0.28906-0.26953 0.69141-0.40625 1.2031-0.40625z"/>
  </symbol>
  <symbol id="q" overflow="visible">
   <path d="m3.1875-2.4531c0.11328-0.1875 0.25391-0.32812 0.42188-0.42188 0.16406-0.09375 0.34766-0.14062 0.54688-0.14062 0.33203 0 0.58594 0.10547 0.76562 0.3125 0.17578 0.21094 0.26562 0.51172 0.26562 0.90625v1.7969h-0.9375v-1.5312-0.078125-0.10938c0-0.20703-0.03125-0.35938-0.09375-0.45312s-0.16406-0.14062-0.29688-0.14062c-0.17969 0-0.32031 0.078125-0.42188 0.23438-0.09375 0.14844-0.14062 0.35547-0.14062 0.625v1.4531h-0.95312v-1.5312c0-0.33203-0.03125-0.54688-0.09375-0.64062-0.054688-0.09375-0.14844-0.14062-0.28125-0.14062-0.1875 0-0.33594 0.078125-0.4375 0.23438-0.09375 0.14844-0.14062 0.35547-0.14062 0.625v1.4531h-0.9375v-2.9531h0.9375v0.4375c0.11328-0.16406 0.24219-0.28906 0.39062-0.375 0.15625-0.082031 0.32812-0.125 0.51562-0.125 0.19531 0 0.375 0.054687 0.53125 0.15625 0.15625 0.09375 0.27344 0.23047 0.35938 0.40625z"/>
  </symbol>
  <symbol id="p" overflow="visible">
   <path d="m3.4219-1.7969v1.7969h-0.95312v-1.375c0-0.25-0.007812-0.42188-0.015625-0.51562-0.011719-0.10156-0.03125-0.17578-0.0625-0.21875-0.03125-0.0625-0.085937-0.10938-0.15625-0.14062-0.0625-0.039062-0.13281-0.0625-0.20312-0.0625-0.19922 0-0.35547 0.078125-0.46875 0.23438-0.11719 0.14844-0.17188 0.35547-0.17188 0.625v1.4531h-0.9375v-4.0938h0.9375v1.5781c0.14453-0.17578 0.29688-0.30078 0.45312-0.375 0.16406-0.082031 0.34375-0.125 0.53125-0.125 0.34375 0 0.60156 0.10547 0.78125 0.3125 0.17578 0.21094 0.26562 0.51172 0.26562 0.90625z"/>
  </symbol>
  <symbol id="o" overflow="visible">
   <path d="m0.5-3.9375h1.125l1.4375 2.7031v-2.7031h0.95312v3.9375h-1.125l-1.4375-2.7031v2.7031h-0.95312z"/>
  </symbol>
  <symbol id="n" overflow="visible">
   <path d="m0.42188-1.1406v-1.8125h0.95312v0.29688c0 0.16797-0.007812 0.37109-0.015625 0.60938v0.48438c0 0.23047 0.003906 0.39844 0.015625 0.5 0.019531 0.10547 0.039062 0.18359 0.0625 0.23438 0.039062 0.0625 0.09375 0.10938 0.15625 0.14062s0.13281 0.046875 0.21875 0.046875c0.19531 0 0.34766-0.070313 0.45312-0.21875 0.11328-0.15625 0.17188-0.36719 0.17188-0.64062v-1.4531h0.95312v2.9531h-0.95312v-0.42188c-0.13672 0.16797-0.28906 0.29297-0.45312 0.375-0.15625 0.082031-0.32812 0.125-0.51562 0.125-0.34375 0-0.60547-0.10156-0.78125-0.3125-0.17969-0.20703-0.26562-0.50781-0.26562-0.90625z"/>
  </symbol>
  <symbol id="m" overflow="visible">
   <path d="m3.4219-1.7969v1.7969h-0.95312v-1.375c0-0.25-0.007812-0.42188-0.015625-0.51562-0.011719-0.10156-0.03125-0.17578-0.0625-0.21875-0.03125-0.0625-0.085937-0.10938-0.15625-0.14062-0.0625-0.039062-0.13281-0.0625-0.20312-0.0625-0.19922 0-0.35547 0.078125-0.46875 0.23438-0.11719 0.14844-0.17188 0.35547-0.17188 0.625v1.4531h-0.9375v-2.9531h0.9375v0.4375c0.14453-0.17578 0.29688-0.30078 0.45312-0.375 0.16406-0.082031 0.34375-0.125 0.53125-0.125 0.34375 0 0.60156 0.10547 0.78125 0.3125 0.17578 0.21094 0.26562 0.51172 0.26562 0.90625z"/>
  </symbol>
  <symbol id="l" overflow="visible">
   <path d="m0.5-3.9375h1.6719c0.5 0 0.88281 0.11719 1.1562 0.34375 0.26953 0.21875 0.40625 0.53906 0.40625 0.95312 0 0.40625-0.13672 0.72656-0.40625 0.95312-0.27344 0.21875-0.65625 0.32812-1.1562 0.32812h-0.65625v1.3594h-1.0156zm1.0156 0.73438v1.1094h0.54688c0.19531 0 0.34766-0.046875 0.45312-0.14062 0.11328-0.10156 0.17188-0.23828 0.17188-0.40625 0-0.17578-0.058594-0.3125-0.17188-0.40625-0.10547-0.10156-0.25781-0.15625-0.45312-0.15625z"/>
  </symbol>
  <symbol id="k" overflow="visible">
   <path d="m0.45312-2.9531h0.9375v2.9062c0 0.39453-0.09375 0.69141-0.28125 0.89062-0.1875 0.20703-0.46484 0.3125-0.82812 0.3125h-0.45312v-0.60938h0.15625c0.17578 0 0.29688-0.042969 0.35938-0.125 0.070312-0.085937 0.10938-0.24219 0.10938-0.46875zm0-1.1406h0.9375v0.76562h-0.9375z"/>
  </symbol>
  <symbol id="j" overflow="visible">
   <path d="m2.8281-2.8594v0.76562c-0.125-0.082031-0.25781-0.14453-0.39062-0.1875-0.125-0.039062-0.25781-0.0625-0.39062-0.0625-0.26172 0-0.46484 0.078125-0.60938 0.23438-0.14844 0.14844-0.21875 0.35938-0.21875 0.64062 0 0.27344 0.070312 0.48438 0.21875 0.64062 0.14453 0.15625 0.34766 0.23438 0.60938 0.23438 0.14453 0 0.28516-0.019531 0.42188-0.0625 0.13281-0.050781 0.25391-0.11719 0.35938-0.20312v0.76562c-0.14844 0.0625-0.29688 0.10156-0.45312 0.125-0.14844 0.03125-0.29688 0.046875-0.45312 0.046875-0.53125 0-0.94922-0.13281-1.25-0.40625-0.29297-0.28125-0.4375-0.66016-0.4375-1.1406 0-0.48828 0.14453-0.86719 0.4375-1.1406 0.30078-0.26953 0.71875-0.40625 1.25-0.40625 0.15625 0 0.30469 0.015625 0.45312 0.046875 0.15625 0.023438 0.30469 0.058594 0.45312 0.10938z"/>
  </symbol>
 </defs>
 <g>
  <path d="m255.77 145.38c0 5.9492-4.8203 10.77-10.77 10.77s-10.77-4.8203-10.77-10.77c0-5.9453 4.8203-10.766 10.77-10.766s10.77 4.8203 10.77 10.766"/>
  <path d="m223.46 145.38c0 5.9492-4.8203 10.77-10.77 10.77-5.9453 0-10.77-4.8203-10.77-10.77 0-5.9453 4.8242-10.766 10.77-10.766 5.9492 0 10.77 4.8203 10.77 10.766"/>
  <path d="m191.15 145.38c0 5.9492-4.8203 10.77-10.77 10.77-5.9453 0-10.766-4.8203-10.766-10.77 0-5.9453 4.8203-10.766 10.766-10.766 5.9492 0 10.77 4.8203 10.77 10.766"/>
  <path d="m196.54 91.539c11.875 0 21.539-9.6641 21.539-21.539s-9.6641-21.539-21.539-21.539-21.539 9.6641-21.539 21.539c0 11.879 9.6641 21.539 21.539 21.539zm0-32.309c5.9375 0 10.77 4.832 10.77 10.77s-4.832 10.77-10.77 10.77-10.77-4.832-10.77-10.77 4.832-10.77 10.77-10.77z"/>
  <path d="m495.38 86.156c16.328 0 29.617-13.285 29.617-29.617 0-16.332-13.285-29.617-29.617-29.617-16.328 0-29.617 13.285-29.617 29.617 0.003906 16.332 13.289 29.617 29.617 29.617zm0-48.461c10.391 0 18.848 8.4531 18.848 18.848 0 10.391-8.4531 18.848-18.848 18.848-10.391 0-18.848-8.4531-18.848-18.848 0.003906-10.395 8.457-18.848 18.848-18.848z"/>
  <path d="m126.54 110.38c0 4.4609-3.6172 8.0781-8.0781 8.0781-4.4609 0-8.0781-3.6172-8.0781-8.0781 0-4.457 3.6172-8.0742 8.0781-8.0742 4.4609 0 8.0781 3.6172 8.0781 8.0742"/>
  <path d="m277.31 56.539c0 4.4609-3.6172 8.0781-8.0781 8.0781-4.4609 0-8.0781-3.6172-8.0781-8.0781 0-4.4609 3.6172-8.0781 8.0781-8.0781 4.4609 0 8.0781 3.6172 8.0781 8.0781"/>
  <path d="m428.08 67.309c0 4.4609-3.6172 8.0742-8.0781 8.0742s-8.0781-3.6133-8.0781-8.0742c0-4.4609 3.6172-8.0781 8.0781-8.0781s8.0781 3.6172 8.0781 8.0781"/>
  <path d="m331.15 88.848c0 4.4609-3.6133 8.0742-8.0742 8.0742s-8.0781-3.6133-8.0781-8.0742c0-4.4609 3.6172-8.0781 8.0781-8.0781s8.0742 3.6172 8.0742 8.0781"/>
  <path d="m589.62 110.38c0 4.4609-3.6172 8.0781-8.0781 8.0781-4.4609 0-8.0781-3.6172-8.0781-8.0781 0-4.457 3.6172-8.0742 8.0781-8.0742 4.4609 0 8.0781 3.6172 8.0781 8.0742"/>
  <path d="m528.23 107.7h-361.85c-19.004 0-34.461 15.461-34.461 34.461v356.46c0 19.004 15.461 34.461 34.461 34.461h361.85c19.004 0 34.461-15.461 34.461-34.461v-356.46c0-19.004-15.457-34.461-34.461-34.461zm-213.23 43.074h236.92v21.539h-236.92zm236.82-10.77h-236.82v-21.539h213.23c12.336 0.003906 22.5 9.4844 23.59 21.539zm-385.44-21.535h137.85v53.848h-161.54v-30.152c0-13.066 10.629-23.695 23.691-23.695zm361.85 403.84h-361.85c-13.062 0-23.691-10.629-23.691-23.691v-315.54h409.23v315.54c0 13.066-10.625 23.691-23.691 23.691z"/>
  <path d="m514.23 215.39h-333.85c-2.9727 0-5.3828 2.4102-5.3828 5.3828v263.85c0 2.9727 2.4102 5.3828 5.3828 5.3828h333.85c2.9727 0 5.3828-2.4102 5.3828-5.3828l0.003907-263.85c0-2.9727-2.4102-5.3828-5.3867-5.3828zm-5.3828 10.77v16.152h-323.08v-16.152zm-323.08 253.08v-226.16h323.08v204.62h-166.92c-2.9727 0-5.3828 2.4102-5.3828 5.3828s2.4102 5.3828 5.3828 5.3828h166.92v10.77z"/>
  <path d="m274.09 371.7c-10.613 0-19.246 8.6328-19.246 19.242 0 10.594 8.6328 19.215 19.246 19.215 10.594 0 19.215-8.6211 19.215-19.215-0.003907-10.609-8.6211-19.242-19.215-19.242zm0 27.688c-4.6719 0-8.4766-3.7891-8.4766-8.4453 0-4.6719 3.8008-8.4727 8.4766-8.4727 4.6562 0 8.4453 3.8008 8.4453 8.4727-0.003906 4.6602-3.7891 8.4453-8.4453 8.4453z"/>
  <path d="m274.09 352.44c-21.234 0-38.508 17.273-38.508 38.508 0 21.215 17.273 38.477 38.508 38.477 21.215 0 38.477-17.262 38.477-38.477 0-21.234-17.262-38.508-38.477-38.508zm0 66.215c-15.293 0-27.738-12.43-27.738-27.707 0-15.293 12.441-27.738 27.738-27.738 15.277 0 27.707 12.441 27.707 27.738 0 15.277-12.43 27.707-27.707 27.707z"/>
  <path d="m324.97 419.09c2.1367-3.8555 3.8164-7.9062 5.0156-12.098l17.41-3.8867c2.4609-0.55078 4.2109-2.7344 4.2109-5.2539v-13.828c0-2.5234-1.75-4.7031-4.2109-5.2539l-17.41-3.8906c-1.2031-4.1953-2.8828-8.2461-5.0156-12.098l9.5625-15.105c1.3477-2.1289 1.0391-4.9062-0.74219-6.6875l-9.7695-9.7695c-1.7852-1.7812-4.5625-2.0898-6.6914-0.73828l-15.094 9.582c-3.8125-2.1211-7.8633-3.8008-12.102-5.0273l-3.8906-17.422c-0.55078-2.4609-2.7344-4.2109-5.2539-4.2109h-13.828c-2.5195 0-4.7031 1.75-5.2539 4.2109l-3.8906 17.422c-4.2383 1.2227-8.2891 2.9062-12.102 5.0273l-15.094-9.582c-2.1289-1.3516-4.9102-1.0469-6.6914 0.73828l-9.7695 9.7695c-1.7812 1.7812-2.0898 4.5586-0.74219 6.6875l9.5625 15.105c-2.1367 3.8555-3.8164 7.9062-5.0156 12.098l-17.41 3.8906c-2.4609 0.55078-4.2109 2.7344-4.2109 5.2539v13.828c0 2.5195 1.75 4.7031 4.2109 5.2539l17.406 3.8867c1.207 4.2188 2.8867 8.2695 5.0156 12.105l-9.5586 15.098c-1.3477 2.1289-1.0391 4.9062 0.74219 6.6875l9.7695 9.7695c1.7812 1.7812 4.5586 2.0898 6.6875 0.74219l15.102-9.5625c3.8555 2.1328 7.9062 3.8164 12.098 5.0156l3.8906 17.41c0.55078 2.4609 2.7344 4.2109 5.2539 4.2109h13.828c2.5195 0 4.7031-1.75 5.2539-4.2109l3.8867-17.406c4.2188-1.207 8.2695-2.8867 12.105-5.0156l15.098 9.5586c2.1289 1.3477 4.9062 1.0391 6.6875-0.74219l9.7695-9.7695c1.7812-1.7812 2.0898-4.5586 0.74219-6.6875zm-4.6406-17.801c-1.1758 5.2969-3.2734 10.352-6.2266 15.02-1.1133 1.7578-1.1133 4 0 5.7578l9.0195 14.246-3.6758 3.6758-14.246-9.0195c-1.7617-1.1172-4.0117-1.1133-5.7695 0.007812-4.6172 2.9375-9.6641 5.0273-15.004 6.2188-2.0391 0.45312-3.6328 2.043-4.0859 4.082l-3.668 16.426h-5.1992l-3.668-16.426c-0.45703-2.0391-2.0469-3.6289-4.0859-4.082-5.2969-1.1797-10.352-3.2734-15.02-6.2227-1.7578-1.1133-4-1.1133-5.7578 0l-14.246 9.0195-3.6758-3.6758 9.0195-14.246c1.1172-1.7617 1.1133-4.0117-0.007813-5.7695-2.9375-4.6172-5.0312-9.668-6.2148-15.008-0.45312-2.0391-2.043-3.6328-4.082-4.0859l-16.426-3.668v-5.1992l16.426-3.668c2.0391-0.45703 3.6289-2.0469 4.082-4.0898 1.1758-5.2969 3.2695-10.348 6.2227-15.02 1.1133-1.7578 1.1133-4 0-5.7578l-9.0195-14.246 3.6719-3.6719 14.246 9.043c1.7656 1.1211 4.0195 1.1172 5.7852-0.007812 4.5703-2.918 9.625-5.0195 15.023-6.25 2.0273-0.46094 3.6094-2.0469 4.0625-4.0742l3.668-16.426h5.1992l3.668 16.426c0.45312 2.0273 2.0352 3.6133 4.0625 4.0742 5.3984 1.2266 10.453 3.3281 15.023 6.25 1.7617 1.125 4.0156 1.1289 5.7852 0.007812l14.246-9.043 3.6719 3.6719-9.0195 14.246c-1.1133 1.7578-1.1133 4 0 5.7578 2.9531 4.668 5.0469 9.7188 6.2227 15.02 0.45312 2.0391 2.043 3.6328 4.082 4.0859l16.426 3.668v5.1992l-16.426 3.668c-2.0469 0.45312-3.6367 2.0469-4.0898 4.0859z"/>
  <path d="m368.85 315h16.152v5.3828c0 7.4219 6.0391 13.461 13.461 13.461 7.4219 0 13.461-6.0391 13.461-13.461v-5.3828h75.383c2.9727 0 5.3828-2.4102 5.3828-5.3828s-2.4102-5.3828-5.3828-5.3828h-75.383v-2.6914c0-7.4219-6.0391-13.461-13.461-13.461-7.4219 0-13.461 6.0391-13.461 13.461v2.6914h-16.152c-2.9727 0-5.3828 2.4102-5.3828 5.3828-0.003906 2.9688 2.4062 5.3828 5.3828 5.3828zm26.922-13.465c0-1.4844 1.207-2.6914 2.6914-2.6914 1.4844 0 2.6914 1.207 2.6914 2.6914v18.848c0 1.4844-1.207 2.6914-2.6914 2.6914-1.4844 0-2.6914-1.207-2.6914-2.6914z"/>
  <path d="m368.85 366.16h37.691v5.3828c0 7.4219 6.0391 13.461 13.461 13.461s13.461-6.0391 13.461-13.461v-5.3828h53.848c2.9727 0 5.3828-2.4102 5.3828-5.3828 0-2.9727-2.4102-5.3828-5.3828-5.3828h-53.848v-2.6914c0-7.4219-6.0391-13.461-13.461-13.461s-13.461 6.0391-13.461 13.461v2.6914h-37.691c-2.9727 0-5.3828 2.4102-5.3828 5.3828-0.003906 2.9727 2.4062 5.3828 5.3828 5.3828zm48.461-13.461c0-1.4844 1.207-2.6914 2.6914-2.6914s2.6914 1.207 2.6914 2.6914v18.848c0 1.4844-1.207 2.6914-2.6914 2.6914s-2.6914-1.207-2.6914-2.6914z"/>
  <path d="m368.85 417.31h64.617v5.3828c0 7.4219 6.0391 13.461 13.461 13.461s13.461-6.0391 13.461-13.461v-5.3828h26.922c2.9727 0 5.3828-2.4102 5.3828-5.3828 0-2.9727-2.4102-5.3828-5.3828-5.3828h-26.922v-2.6914c0-7.4219-6.0391-13.461-13.461-13.461s-13.461 6.0391-13.461 13.461v2.6914h-64.617c-2.9727 0-5.3828 2.4102-5.3828 5.3828-0.003906 2.9727 2.4062 5.3828 5.3828 5.3828zm75.383-13.461c0-1.4844 1.207-2.6914 2.6914-2.6914s2.6914 1.207 2.6914 2.6914v18.848c0 1.4844-1.207 2.6914-2.6914 2.6914s-2.6914-1.207-2.6914-2.6914z"/>
  <path d="m201.92 306.93h26.922c2.9727 0 5.3828-2.4102 5.3828-5.3828 0-2.9727-2.4102-5.3828-5.3828-5.3828h-26.922c-2.9727 0-5.3828 2.4102-5.3828 5.3828 0 2.9727 2.4102 5.3828 5.3828 5.3828z"/>
  <path d="m201.92 290.77h26.922c2.9727 0 5.3828-2.4102 5.3828-5.3828 0-2.9727-2.4102-5.3828-5.3828-5.3828h-26.922c-2.9727 0-5.3828 2.4102-5.3828 5.3828 0 2.9727 2.4102 5.3828 5.3828 5.3828z"/>
  <path d="m201.92 274.62h26.922c2.9727 0 5.3828-2.4102 5.3828-5.3828s-2.4102-5.3828-5.3828-5.3828h-26.922c-2.9727 0-5.3828 2.4102-5.3828 5.3828s2.4102 5.3828 5.3828 5.3828z"/>
  <use x="70" y="576.152344" xlink:href="#t"/>
  <use x="73.953125" y="576.152344" xlink:href="#c"/>
  <use x="76.605469" y="576.152344" xlink:href="#b"/>
  <use x="80.257812" y="576.152344" xlink:href="#d"/>
  <use x="83.894531" y="576.152344" xlink:href="#a"/>
  <use x="86.464844" y="576.152344" xlink:href="#b"/>
  <use x="90.117188" y="576.152344" xlink:href="#i"/>
  <use x="95.847656" y="576.152344" xlink:href="#h"/>
  <use x="99.703125" y="576.152344" xlink:href="#g"/>
  <use x="105.085938" y="576.152344" xlink:href="#f"/>
  <use x="108.765625" y="576.152344" xlink:href="#s"/>
  <use x="110.609375" y="576.152344" xlink:href="#d"/>
  <use x="114.246094" y="576.152344" xlink:href="#a"/>
  <use x="116.816406" y="576.152344" xlink:href="#d"/>
  <use x="120.453125" y="576.152344" xlink:href="#c"/>
  <use x="123.105469" y="576.152344" xlink:href="#a"/>
  <use x="70" y="581.539062" xlink:href="#r"/>
  <use x="72.34375" y="581.539062" xlink:href="#c"/>
  <use x="75" y="581.539062" xlink:href="#e"/>
  <use x="78.699219" y="581.539062" xlink:href="#q"/>
  <use x="86.183594" y="581.539062" xlink:href="#a"/>
  <use x="88.757812" y="581.539062" xlink:href="#p"/>
  <use x="92.589844" y="581.539062" xlink:href="#b"/>
  <use x="98.117188" y="581.539062" xlink:href="#o"/>
  <use x="102.625" y="581.539062" xlink:href="#e"/>
  <use x="106.324219" y="581.539062" xlink:href="#n"/>
  <use x="110.15625" y="581.539062" xlink:href="#m"/>
  <use x="115.863281" y="581.539062" xlink:href="#l"/>
  <use x="119.808594" y="581.539062" xlink:href="#c"/>
  <use x="122.464844" y="581.539062" xlink:href="#e"/>
  <use x="126.164062" y="581.539062" xlink:href="#k"/>
  <use x="128.011719" y="581.539062" xlink:href="#b"/>
  <use x="131.664062" y="581.539062" xlink:href="#j"/>
  <use x="134.855469" y="581.539062" xlink:href="#a"/>
 </g>
</svg>
